<?xml version="1.0" encoding="UTF-8" standalone="no"?>
<!-- Created with Inkscape (http://www.inkscape.org/) -->
<svg
   xmlns:dc="http://purl.org/dc/elements/1.1/"
   xmlns:cc="http://web.resource.org/cc/"
   xmlns:rdf="http://www.w3.org/1999/02/22-rdf-syntax-ns#"
   xmlns:svg="http://www.w3.org/2000/svg"
   xmlns="http://www.w3.org/2000/svg"
   xmlns:sodipodi="http://sodipodi.sourceforge.net/DTD/sodipodi-0.dtd"
   xmlns:inkscape="http://www.inkscape.org/namespaces/inkscape"
   width="216"
   height="158"
   id="svg2"
   sodipodi:version="0.32"
   inkscape:version="0.44.1"
   version="1.0"
   sodipodi:docbase="C:\Documents and Settings\Rüzgar\Belgelerim\Vikipedi\tamgalar"
   sodipodi:docname="akevli.svg">
  <defs
     id="defs4" />
  <sodipodi:namedview
     id="base"
     pagecolor="#ffffff"
     bordercolor="#666666"
     borderopacity="1.0"
     gridtolerance="10000"
     guidetolerance="10"
     objecttolerance="10"
     inkscape:pageopacity="0.0"
     inkscape:pageshadow="2"
     inkscape:zoom="2"
     inkscape:cx="178.74973"
     inkscape:cy="71.852602"
     inkscape:document-units="px"
     inkscape:current-layer="layer1"
     width="216px"
     height="158px"
     inkscape:showpageshadow="true"
     inkscape:window-width="1024"
     inkscape:window-height="682"
     inkscape:window-x="-4"
     inkscape:window-y="-4" />
  <metadata
     id="metadata7">
    <rdf:RDF>
      <cc:Work
         rdf:about="">
        <dc:format>image/svg+xml</dc:format>
        <dc:type
           rdf:resource="http://purl.org/dc/dcmitype/StillImage" />
      </cc:Work>
    </rdf:RDF>
  </metadata>
  <g
     inkscape:label="Layer 1"
     inkscape:groupmode="layer"
     id="layer1">
    <g
       id="g17065"
       transform="matrix(0.915674,0,0,0.922072,9.223892,6.156312)">
      <path
         id="path2801"
         d="M 47.838741,26.860481 L 168.16126,26.860481"
         style="fill:none;fill-rule:evenodd;stroke:black;stroke-width:4.35318375;stroke-linecap:round;stroke-linejoin:round;stroke-miterlimit:4;stroke-dasharray:none;stroke-opacity:1" />
      <path
         style="fill:none;fill-rule:evenodd;stroke:black;stroke-width:4.35318375;stroke-linecap:round;stroke-linejoin:round;stroke-miterlimit:4;stroke-dasharray:none;stroke-opacity:1"
         d="M 47.838741,38.860481 L 168.16126,38.860481"
         id="path3707" />
      <path
         id="path3709"
         d="M 47.989429,38.953324 L 166.94175,81.85481"
         style="fill:none;fill-rule:evenodd;stroke:black;stroke-width:4.35318375;stroke-linecap:round;stroke-linejoin:round;stroke-miterlimit:4;stroke-dasharray:none;stroke-opacity:1" />
      <path
         style="fill:none;fill-rule:evenodd;stroke:black;stroke-width:4.35318375;stroke-linecap:round;stroke-linejoin:round;stroke-miterlimit:4;stroke-dasharray:none;stroke-opacity:1"
         d="M 91.150451,55.935373 L 47.838741,96.675033"
         id="path3711" />
      <path
         style="fill:none;fill-rule:evenodd;stroke:black;stroke-width:4.35318375;stroke-linecap:round;stroke-linejoin:round;stroke-miterlimit:4;stroke-dasharray:none;stroke-opacity:1"
         d="M 47.583881,96.860479 L 150.38329,96.860479"
         id="path4610" />
      <path
         style="fill:none;fill-rule:evenodd;stroke:black;stroke-width:4.35318375;stroke-linecap:round;stroke-linejoin:round;stroke-miterlimit:4;stroke-dasharray:none;stroke-opacity:1"
         d="M 55.153366,130.7793 L 55.153366,97.74219"
         id="path4616" />
      <path
         id="path4618"
         d="M 55.041328,131.13952 C 55.335978,131.13952 56.11544,131.13952 56.614214,131.13952 C 57.269582,131.13952 57.924951,131.13952 58.58032,131.13952 C 59.039079,131.13952 59.497837,131.13952 59.956595,131.13952 C 60.327971,131.13952 60.699346,131.13952 61.070723,131.13952 C 61.485789,131.13952 61.900856,131.13952 62.315923,131.13952 C 62.687299,131.13952 63.058674,131.13952 63.430051,131.13952 C 63.92269,131.13952 64.052916,131.05686 64.347567,130.80975 C 64.574113,130.61976 64.654389,130.44251 64.871862,130.26013 C 65.069282,130.09457 65.195834,129.88163 65.330621,129.65555 C 65.455525,129.44605 65.937803,129.26354 66.1826,129.1609 C 66.570508,128.99824 66.762277,128.83964 66.969043,128.66624 C 67.286104,128.40034 67.318402,128.42865 67.427802,128.06166 C 67.531648,127.7133 66.606489,127.37288 66.379211,127.18227 C 66.163406,127.00129 65.961661,126.8372 65.723842,126.68762 C 65.367358,126.46339 65.22457,126.32187 64.871862,126.24792 C 64.591281,126.18909 64.344399,125.99926 64.150956,125.91815 C 63.841528,125.7884 63.52862,125.51297 63.298977,125.36853 C 62.990574,125.17455 62.907206,125.01158 62.512534,124.92884 C 62.1385,124.85042 62.032522,124.70862 61.595017,124.9838 C 61.306158,125.16549 61.076209,125.41889 60.874111,125.58838 C 60.557907,125.85356 60.329566,126.03656 59.956595,126.19296 C 59.663938,126.31568 59.190692,126.71961 58.973542,126.96242 C 58.73736,127.22652 58.076483,127.43992 57.859414,127.62197 C 57.647158,127.79997 57.335301,127.78678 57.072972,127.89677 C 56.907736,127.96606 56.683228,127.95174 56.483139,127.95174"
         style="fill:none;fill-rule:evenodd;stroke:black;stroke-width:4.35318375;stroke-linecap:round;stroke-linejoin:round;stroke-miterlimit:4;stroke-dasharray:none;stroke-opacity:1" />
    </g>
  </g>
</svg>
